<?xml version="1.0" encoding="iso-8859-1"?>
<!-- Uploaded to: SVG Repo, www.svgrepo.com, Generator: SVG Repo Mixer Tools -->
<svg height="800px" width="800px" version="1.1" id="Layer_1" xmlns="http://www.w3.org/2000/svg" xmlns:xlink="http://www.w3.org/1999/xlink" 
	 viewBox="0 0 512 512" xml:space="preserve">
<path d="M256,0C114.616,0,0,114.616,0,256s114.616,256,256,256s256-114.616,256-256S397.384,0,256,0z"/>
<path style="fill:#F00000;" d="M448,256.568l-50.4-40.672l32.4-56.224l-68.4-5.984l-6-65.792L298,115.408l-39.6-51.44L221.2,116.6
	l-60-31.104l-3.6,68.184l-67.2,3.592l25.2,64.6L64,252.976l52.8,39.48L90.4,348.68l66,7.176l3.6,66.992l61.2-28.712l40.8,53.832
	l36-53.832l56.4,27.512l4.8-66.992l66-1.2l-24-55.032L448,256.568z"/>
<path d="M304.6,192.824h-12.608v-28.456c0-3.48-2.824-6.304-6.304-6.304H226.32c-3.48,0-6.304,2.824-6.304,6.304v28.456h-12.608
	v-28.456c0-10.432,8.488-18.912,18.912-18.912h59.368c10.432,0,18.912,8.488,18.912,18.912V192.824z"/>
<path style="fill:#FFFFFF;" d="M183.456,185.44L155.12,322.288h201.76L328.544,185.44H183.456z"/>
<path d="M225.528,233.776c-6.08,0-11.008-4.936-11.008-11.016c0-6.088,4.928-11.016,11.008-11.016s11.008,4.936,11.008,11.016
	S231.608,233.776,225.528,233.776z M286.472,233.776c-6.08,0-11.008-4.936-11.008-11.016c0-6.088,4.928-11.016,11.008-11.016
	s11.008,4.936,11.008,11.016C297.48,228.84,292.552,233.776,286.472,233.776z"/>
</svg>